<mxfile host="Electron" agent="Mozilla/5.0 (Windows NT 10.0; Win64; x64) AppleWebKit/537.36 (KHTML, like Gecko) draw.io/27.0.9 Chrome/134.0.6998.205 Electron/35.4.0 Safari/537.36" version="27.0.9" pages="2">
  <diagram name="Page-1" id="NoxIy_ImIk-5bVw1UlII">
    <mxGraphModel dx="487" dy="588" grid="1" gridSize="10" guides="1" tooltips="1" connect="1" arrows="1" fold="1" page="1" pageScale="1" pageWidth="1400" pageHeight="850" math="0" shadow="0">
      <root>
        <mxCell id="0" />
        <mxCell id="1" parent="0" />
        <mxCell id="O-ws_NPDMg6LXlj5JLhv-1" value="" style="rounded=.4;whiteSpace=wrap;html=1;arcSize=50;fillColor=#DFFFF1;strokeColor=#00FFFF;" parent="1" vertex="1">
          <mxGeometry x="294" y="80" width="226" height="280" as="geometry" />
        </mxCell>
        <mxCell id="9jup_bom7WLfg4Qzv4XH-3" value="" style="rounded=1;whiteSpace=wrap;html=1;" vertex="1" parent="1">
          <mxGeometry x="210" y="590" width="70" height="20" as="geometry" />
        </mxCell>
        <mxCell id="9jup_bom7WLfg4Qzv4XH-4" value="" style="rounded=1;whiteSpace=wrap;html=1;" vertex="1" parent="1">
          <mxGeometry x="320" y="590" width="70" height="20" as="geometry" />
        </mxCell>
        <object label="" id="O-ws_NPDMg6LXlj5JLhv-2">
          <mxCell style="rounded=1;whiteSpace=wrap;html=1;fillColor=#2A2A2A;strokeColor=#00FFFF;" parent="1" vertex="1">
            <mxGeometry x="310" y="147" width="40" height="40" as="geometry" />
          </mxCell>
        </object>
        <mxCell id="O-ws_NPDMg6LXlj5JLhv-3" value="" style="rounded=1;whiteSpace=wrap;html=1;fillColor=#2A2A2A;strokeColor=#00FFFF;" parent="1" vertex="1">
          <mxGeometry x="360" y="147" width="40" height="40" as="geometry" />
        </mxCell>
        <mxCell id="O-ws_NPDMg6LXlj5JLhv-4" value="" style="rounded=1;whiteSpace=wrap;html=1;fillColor=#2A2A2A;strokeColor=#00FFFF;" parent="1" vertex="1">
          <mxGeometry x="411" y="147" width="40" height="40" as="geometry" />
        </mxCell>
        <mxCell id="O-ws_NPDMg6LXlj5JLhv-5" value="" style="rounded=1;whiteSpace=wrap;html=1;fillColor=#2A2A2A;strokeColor=#00FFFF;" parent="1" vertex="1">
          <mxGeometry x="460" y="147" width="40" height="40" as="geometry" />
        </mxCell>
        <mxCell id="O-ws_NPDMg6LXlj5JLhv-8" value="" style="rounded=1;whiteSpace=wrap;html=1;fillColor=#2A2A2A;strokeColor=#00FFFF;" parent="1" vertex="1">
          <mxGeometry x="310" y="191" width="40" height="40" as="geometry" />
        </mxCell>
        <mxCell id="O-ws_NPDMg6LXlj5JLhv-9" value="" style="rounded=1;whiteSpace=wrap;html=1;fillColor=#2A2A2A;strokeColor=#00FFFF;" parent="1" vertex="1">
          <mxGeometry x="360" y="191" width="40" height="40" as="geometry" />
        </mxCell>
        <mxCell id="O-ws_NPDMg6LXlj5JLhv-10" value="" style="rounded=1;whiteSpace=wrap;html=1;fillColor=#2A2A2A;strokeColor=#00FFFF;" parent="1" vertex="1">
          <mxGeometry x="411" y="191" width="40" height="40" as="geometry" />
        </mxCell>
        <mxCell id="O-ws_NPDMg6LXlj5JLhv-11" value="" style="rounded=1;whiteSpace=wrap;html=1;fillColor=#2A2A2A;strokeColor=#00FFFF;" parent="1" vertex="1">
          <mxGeometry x="460" y="191" width="40" height="40" as="geometry" />
        </mxCell>
        <mxCell id="O-ws_NPDMg6LXlj5JLhv-12" value="" style="rounded=1;whiteSpace=wrap;html=1;fillColor=#2A2A2A;strokeColor=#00FFFF;" parent="1" vertex="1">
          <mxGeometry x="310" y="236" width="40" height="40" as="geometry" />
        </mxCell>
        <mxCell id="O-ws_NPDMg6LXlj5JLhv-13" value="" style="rounded=1;whiteSpace=wrap;html=1;fillColor=#2A2A2A;strokeColor=#00FFFF;" parent="1" vertex="1">
          <mxGeometry x="360" y="236" width="40" height="40" as="geometry" />
        </mxCell>
        <mxCell id="O-ws_NPDMg6LXlj5JLhv-14" value="" style="rounded=1;whiteSpace=wrap;html=1;fillColor=#2A2A2A;strokeColor=#00FFFF;" parent="1" vertex="1">
          <mxGeometry x="411" y="236" width="40" height="40" as="geometry" />
        </mxCell>
        <mxCell id="O-ws_NPDMg6LXlj5JLhv-15" value="" style="rounded=1;whiteSpace=wrap;html=1;fillColor=#2A2A2A;strokeColor=#00FFFF;" parent="1" vertex="1">
          <mxGeometry x="460" y="236" width="40" height="40" as="geometry" />
        </mxCell>
        <mxCell id="O-ws_NPDMg6LXlj5JLhv-16" value="" style="rounded=1;whiteSpace=wrap;html=1;fillColor=#2A2A2A;strokeColor=#00FFFF;" parent="1" vertex="1">
          <mxGeometry x="310" y="283" width="40" height="40" as="geometry" />
        </mxCell>
        <mxCell id="O-ws_NPDMg6LXlj5JLhv-17" value="" style="rounded=1;whiteSpace=wrap;html=1;fillColor=#2A2A2A;strokeColor=#00FFFF;" parent="1" vertex="1">
          <mxGeometry x="360" y="283" width="40" height="40" as="geometry" />
        </mxCell>
        <mxCell id="O-ws_NPDMg6LXlj5JLhv-18" value="" style="rounded=1;whiteSpace=wrap;html=1;fillColor=#2A2A2A;strokeColor=#00FFFF;" parent="1" vertex="1">
          <mxGeometry x="411" y="283" width="40" height="40" as="geometry" />
        </mxCell>
        <mxCell id="O-ws_NPDMg6LXlj5JLhv-19" value="" style="rounded=1;whiteSpace=wrap;html=1;fillColor=#2A2A2A;strokeColor=#00FFFF;" parent="1" vertex="1">
          <mxGeometry x="460" y="283" width="40" height="40" as="geometry" />
        </mxCell>
        <mxCell id="9jup_bom7WLfg4Qzv4XH-1" value="&lt;font style=&quot;font-size: 18px;&quot;&gt;+&lt;/font&gt;" style="rounded=1;whiteSpace=wrap;html=1;" vertex="1" parent="1">
          <mxGeometry x="385" y="98" width="30" height="30" as="geometry" />
        </mxCell>
        <mxCell id="9jup_bom7WLfg4Qzv4XH-2" value="&lt;font style=&quot;font-size: 18px;&quot;&gt;-&lt;/font&gt;" style="rounded=1;whiteSpace=wrap;html=1;" vertex="1" parent="1">
          <mxGeometry x="425" y="98" width="30" height="30" as="geometry" />
        </mxCell>
        <object label="Save" id="9jup_bom7WLfg4Qzv4XH-5">
          <mxCell style="rounded=1;whiteSpace=wrap;html=1;" vertex="1" parent="1">
            <mxGeometry x="315" y="90" width="60" height="20" as="geometry" />
          </mxCell>
        </object>
        <object label="&lt;font style=&quot;font-size: 9px;&quot;&gt;&lt;i&gt;Current Palette&lt;/i&gt;&lt;/font&gt;" id="9jup_bom7WLfg4Qzv4XH-6">
          <mxCell style="rounded=1;whiteSpace=wrap;html=1;" vertex="1" parent="1">
            <mxGeometry x="311" y="330" width="189" height="18" as="geometry" />
          </mxCell>
        </object>
        <object label="Load" id="9jup_bom7WLfg4Qzv4XH-9">
          <mxCell style="rounded=1;whiteSpace=wrap;html=1;" vertex="1" parent="1">
            <mxGeometry x="315" y="114" width="60" height="20" as="geometry" />
          </mxCell>
        </object>
        <mxCell id="9jup_bom7WLfg4Qzv4XH-12" value="&lt;font style=&quot;font-size: 8px;&quot;&gt;3 x 3&lt;/font&gt;" style="rounded=0;whiteSpace=wrap;html=1;" vertex="1" parent="1">
          <mxGeometry x="469" y="103" width="30" height="20" as="geometry" />
        </mxCell>
      </root>
    </mxGraphModel>
  </diagram>
  <diagram id="xe2XMWEP53JQS6dr_2ez" name="Page-2">
    <mxGraphModel dx="1023" dy="1234" grid="1" gridSize="10" guides="1" tooltips="1" connect="1" arrows="1" fold="1" page="1" pageScale="1" pageWidth="1400" pageHeight="850" math="0" shadow="0">
      <root>
        <mxCell id="0" />
        <mxCell id="1" parent="0" />
      </root>
    </mxGraphModel>
  </diagram>
</mxfile>
